<?xml version="1.0" encoding="UTF-8"?>
<svg width="350" height="75" version="1.1" viewBox="0 0 93 20" xmlns="http://www.w3.org/2000/svg" xmlns:cc="http://creativecommons.org/ns#" xmlns:dc="http://purl.org/dc/elements/1.1/" xmlns:rdf="http://www.w3.org/1999/02/22-rdf-syntax-ns#" xmlns:xlink="http://www.w3.org/1999/xlink">
<defs>
<linearGradient id="a">
<stop stop-color="#646464" offset="0"/>
<stop stop-color="#bbb" offset="1"/>
</linearGradient>
<linearGradient id="d" x1="227" x2="327" y1="38" y2="38" gradientTransform="matrix(.26 0 0 .26 4.8 0)" gradientUnits="userSpaceOnUse" xlink:href="#a"/>
<linearGradient id="c" x1="325" x2="466" y1="148" y2="148" gradientTransform="translate(157 -100)" gradientUnits="userSpaceOnUse" xlink:href="#a"/>
<radialGradient id="b" cx="142" cy="143" r="13" gradientTransform="matrix(1.2 1 -1 1.2 290 -280)" gradientUnits="userSpaceOnUse">
<stop stop-color="#fff" offset="0"/>
<stop stop-color="#b7b7b7" stop-opacity=".98" offset="1"/>
</radialGradient>
</defs>
<metadata>
<rdf:RDF>
<cc:Work rdf:about="">
<dc:format>image/svg+xml</dc:format>
<dc:type rdf:resource="http://purl.org/dc/dcmitype/StillImage"/>
<dc:title/>
</cc:Work>
</rdf:RDF>
</metadata>
<g fill="#d78500" style="font-variant-caps:normal;font-variant-east-asian:normal;font-variant-ligatures:normal;font-variant-numeric:normal" aria-label="Chokoku CAD">
<g fill="#efab00" stroke-width=".26">
<path d="m18 6.1v1.7q-1.3-1-2.6-1-1.5 0-2.5 1.1-1 1.1-1 2.6 0 1.5 1 2.5t2.5 1q0.76 0 1.3-0.25 0.3-0.12 0.61-0.33 0.32-0.21 0.68-0.51v1.7q-1.2 0.7-2.6 0.7-2.1 0-3.5-1.4-1.4-1.4-1.4-3.5 0-1.8 1.2-3.3 1.5-1.8 3.9-1.8 1.3 0 2.5 0.7z" style="font-variant-caps:normal;font-variant-east-asian:normal;font-variant-ligatures:normal;font-variant-numeric:normal"/>
<path d="m19 4.7h1.4v4.9q0.74-0.67 1.6-0.67 1 0 1.6 0.66 0.52 0.58 0.52 1.8v3.7h-1.4v-3.6q0-0.73-0.26-1-0.25-0.33-0.82-0.33-0.73 0-1 0.45-0.29 0.46-0.29 1.6v2.9h-1.4z" style="font-variant-caps:normal;font-variant-east-asian:normal;font-variant-ligatures:normal;font-variant-numeric:normal"/>
<path d="m26 12q0-1.3 0.94-2.2 0.94-0.92 2.3-0.92 1.4 0 2.3 0.92 0.93 0.92 0.93 2.3 0 1.4-0.94 2.3-0.94 0.91-2.3 0.91-1.4 0-2.3-0.93-0.92-0.92-0.92-2.3zm1.4 0.025q0 0.91 0.48 1.4 0.5 0.53 1.3 0.53 0.82 0 1.3-0.53 0.49-0.53 0.49-1.4 0-0.88-0.49-1.4-0.5-0.53-1.3-0.53-0.8 0-1.3 0.53-0.5 0.53-0.5 1.4z" style="font-variant-caps:normal;font-variant-east-asian:normal;font-variant-ligatures:normal;font-variant-numeric:normal"/>
<path d="m35 4.7v6.4l2-2h1.9l-2.6 2.5 2.8 3.5h-1.8l-2-2.5-0.22 0.22v2.3h-1.4v-10z" style="font-variant-caps:normal;font-variant-east-asian:normal;font-variant-ligatures:normal;font-variant-numeric:normal"/>
<path d="m40 12q0-1.3 0.94-2.2 0.94-0.92 2.3-0.92 1.4 0 2.3 0.92 0.93 0.92 0.93 2.3 0 1.4-0.94 2.3-0.94 0.91-2.3 0.91-1.4 0-2.3-0.93-0.92-0.92-0.92-2.3zm1.4 0.025q0 0.91 0.48 1.4 0.5 0.53 1.3 0.53 0.82 0 1.3-0.53 0.49-0.53 0.49-1.4 0-0.88-0.49-1.4-0.5-0.53-1.3-0.53-0.8 0-1.3 0.53-0.5 0.53-0.5 1.4z" style="font-variant-caps:normal;font-variant-east-asian:normal;font-variant-ligatures:normal;font-variant-numeric:normal"/>
<path d="m49 4.7v6.4l2-2h1.9l-2.6 2.5 2.8 3.5h-1.8l-2-2.5-0.22 0.22v2.3h-1.4v-10z" style="font-variant-caps:normal;font-variant-east-asian:normal;font-variant-ligatures:normal;font-variant-numeric:normal"/>
<path d="m55 9.1v3.5q0 1.5 1.2 1.5t1.2-1.5v-3.5h1.4v3.5q0 0.73-0.18 1.3-0.17 0.47-0.6 0.85-0.71 0.61-1.8 0.61-1.1 0-1.8-0.61-0.43-0.38-0.61-0.85-0.17-0.42-0.17-1.3v-3.5z" style="font-variant-caps:normal;font-variant-east-asian:normal;font-variant-ligatures:normal;font-variant-numeric:normal"/>
</g>
<path d="m78 5-4.7 10h1.6l1.1-2.3h4.1l1 2.3h1.6zm-8.2 0.42c-1.6 0-2.9 0.58-3.9 1.8-0.81 0.95-1.2 2-1.2 3.3 0 1.4 0.48 2.5 1.4 3.5 0.97 0.95 2.1 1.4 3.5 1.4 0.91 0 1.8-0.23 2.6-0.7v-1.7c-0.24 0.2-0.46 0.37-0.68 0.51-0.21 0.14-0.42 0.25-0.61 0.33-0.36 0.17-0.79 0.25-1.3 0.25-0.98 0-1.8-0.35-2.5-1s-1-1.5-1-2.5c0-1 0.34-1.9 1-2.6 0.67-0.71 1.5-1.1 2.5-1.1 0.89 0 1.8 0.35 2.6 1v-1.7c-0.8-0.47-1.6-0.7-2.5-0.7zm14 0.19v9.6h2c0.97 0 1.7-0.089 2.3-0.27 0.57-0.18 1.1-0.49 1.6-0.95 1-0.91 1.5-2.1 1.5-3.6 0-1.5-0.49-2.7-1.5-3.6-0.49-0.45-1-0.76-1.6-0.95-0.56-0.19-1.3-0.29-2.3-0.29zm1.4 1.4h0.65c1.2 0 2.2 0.29 2.8 0.87 0.7 0.65 1.1 1.5 1.1 2.6 0 1-0.36 1.9-1.1 2.5-0.35 0.31-0.74 0.54-1.2 0.69-0.43 0.14-0.97 0.2-1.6 0.2h-0.65zm-7.2 1.3 1.4 3.3h-2.9z" fill="url(#d)" stroke-width=".26" style="font-variant-caps:normal;font-variant-east-asian:normal;font-variant-ligatures:normal;font-variant-numeric:normal"/>
<g transform="matrix(0 -.027 .027 0 2.8 19)" stroke="#000" stroke-width=".79">
<path d="m492 61-174-0.57v-25l173 0.57-8.6 3.5 0.042 14z" fill="#646464" stop-color="#000000" style="font-variation-settings:normal"/>
<path d="m293 61-50 6.3-28 18m33-60-5 43m-156 18-35-19-13-22-39 7.5 52 14m34-56-53 11 24 4.1-18 19m185-34h-173l-47 28-4.6 14 3.5 15 47 17 242 1.7v-12l-0.58-33 0.58-21-38-8.6-29-0.58 22 15 44 13" fill="#efab00" stop-color="#000000" style="font-variation-settings:normal"/>
<path d="m292 40 26-3.6m-25 25v-41l24-0.58 2.3 66-26 0.58v-25l25-0.64" fill="url(#b)" stop-color="#000000" style="font-variation-settings:normal"/>
<path d="m483 60-0.3 3.3 13 15 47 18 79-0.6 1.2-95-42-0.3-84 25-14 15z" fill="url(#c)" stop-color="#000000" style="font-variation-settings:normal"/>
</g>
</g>
</svg>
